<svg baseProfile="tiny-ps" xmlns="http://www.w3.org/2000/svg" width="512" height="512" viewBox="0 0 5000 5000">
    <metadata><?xpacket begin="﻿" id="W5M0MpCehiHzreSzNTczkc9d"?>

        <?xpacket end="w"?></metadata>
    <defs>
        <style>
            .cls-1 {
            fill: #167a45;
            }

            .cls-2 {
            fill: #fff;
            }

            .cls-2, .cls-3 {
            fill-rule: evenodd;
            }
        </style>
    </defs>
    <title>Bramer Campers</title>
    <rect class="cls-1" width="5000" height="5000"/>
    <path class="cls-2" d="M0,655.874H5000V4345.13H0V655.874Z"/>
    <path id="B" class="cls-3"
          d="M2532.54,3841.22q213.615,0,412.64-35.6,198.99-35.61,356.96-122.34,157.905-86.7,250.14-240.1,92.175-153.375,92.21-387.08,0-189.87-96.77-331.39-96.81-141.48-266.58-224.59-169.8-83.055-388.91-94.03v-16.43q266.565-63.885,419.95-231.88,153.375-167.97,153.37-425.43,0-153.375-80.34-290.31-80.355-136.95-293.96-223.67-213.63-86.7-613.49-86.73H1354.85v151.55l303.1,107.72a119.563,119.563,0,0,1,44.73,28.3q19.17,19.17,19.17,55.69V3492.48q0,40.185-17.34,60.25-17.385,20.115-46.56,29.22l-303.1,104.07v155.2H2532.54ZM2413.85,1381.78q326.82,0,471.99,122.34Q3031,1626.46,3031,1894.85q0,202.665-150.64,318.61-150.63,115.98-548.67,115.95H2130.85V1381.78h283Zm67.56,1190.47q392.55,0,551.41,119.59,158.85,119.61,158.85,419.04,0,253.8-153.37,366.99-153.375,113.235-471.07,113.21H2130.85V2572.25h350.56Z"/>
</svg>
